<?xml version="1.0" encoding="UTF-8"?>
<!DOCTYPE svg PUBLIC "-//W3C//DTD SVG 1.1//EN" "http://www.w3.org/Graphics/SVG/1.1/DTD/svg11.dtd">
<!-- Creator: CorelDRAW X8 -->
<svg xmlns="http://www.w3.org/2000/svg" xml:space="preserve" width="49.5714mm" height="64.2246mm" version="1.1" style="shape-rendering:geometricPrecision; text-rendering:geometricPrecision; image-rendering:optimizeQuality; fill-rule:evenodd; clip-rule:evenodd"
viewBox="0 0 335 434"
 xmlns:xlink="http://www.w3.org/1999/xlink">
 <defs>
  <style type="text/css">
   <![CDATA[
    .fil0 {fill:#1A1A1A}
   ]]>
  </style>
 </defs>
 <g id="Layer_x0020_1">
  <metadata id="CorelCorpID_0Corel-Layer"/>
  <g id="_2169327629440">
   <g id="_2169323036128">
    <path class="fil0" d="M170 152c-6,0 -43,-16 -65,-16 -12,0 -20,0 -32,3 -10,4 -17,8 -26,14 -29,22 -47,62 -47,98 0,15 1,23 4,38 1,10 4,19 7,28 3,8 9,24 12,31 1,3 2,5 3,6 2,4 4,9 6,12 8,16 14,24 25,38 3,3 9,10 12,13 1,1 2,1 3,2 1,1 1,1 2,2 8,6 21,13 31,13 15,0 19,0 32,-6l8 -3c13,-5 21,-7 36,-7 3,0 6,1 9,2 7,1 16,4 23,6 21,7 38,14 60,-1 8,-6 12,-11 18,-18 15,-15 34,-49 41,-69 1,-2 3,-7 3,-9 -2,-1 -3,-2 -5,-3 -19,-9 -35,-25 -43,-44 -11,-26 -7,-59 7,-81 4,-8 6,-9 9,-12 3,-4 12,-11 17,-13 2,-1 3,-2 5,-3 -2,-3 -4,-5 -6,-8 -6,-7 -16,-15 -24,-20 -22,-13 -53,-16 -79,-7l-46 14 0 0z"/>
    <path class="fil0" d="M167 94l0 6c3,0 3,0 6,0 9,-1 26,-5 34,-8 9,-3 17,-7 24,-12 3,-2 5,-4 7,-6 4,-2 9,-8 12,-12 10,-14 18,-36 18,-54l0 -8c-4,0 -8,1 -11,1 -3,1 -6,1 -9,2 -14,4 -24,7 -36,14 -9,5 -19,14 -26,23 -1,2 -3,4 -5,7 -1,3 -2,4 -4,8 -5,9 -10,25 -10,39l0 0z"/>
   </g>
  </g>
 </g>
</svg>
